<?xml version="1.0" encoding="utf-8"?>
<!-- Generator: Adobe Illustrator 21.0.0, SVG Export Plug-In . SVG Version: 6.00 Build 0)  -->
<svg version="1.1" id="AllenLogoText_-_white" xmlns="http://www.w3.org/2000/svg" xmlns:xlink="http://www.w3.org/1999/xlink"
	 x="0px" y="0px" viewBox="0 0 128.2 128" style="enable-background:new 0 0 128.2 128;" xml:space="preserve">
<style type="text/css">
	.st0{fill:#FFFFFF;}
</style>
<g>
	<polygon class="st0" points="7.8,99.4 23.1,99.4 64.4,28.8 98.3,88.1 49.6,88.1 60.2,69.2 81.6,69.2 75.1,57.4 54.1,57.4 
		29.6,99.4 120.6,99.4 64,4.2 	"/>
	<g>
		<path class="st0" d="M2.3,113H0l3.7-8.3h2.5l3.7,8.3H7.5l-0.7-1.7H3L2.3,113z M3.6,109.8h2.6L5,106.5l0,0L3.6,109.8z"/>
		<path class="st0" d="M14,113h-2v-8.3h2V113z"/>
		<path class="st0" d="M18,113h-2v-8.3h2V113z"/>
		<path class="st0" d="M27.3,111.3c-0.5,1.5-2.1,2-3.4,2c-2.2,0-3.8-0.8-3.8-3.4c0-0.7,0.3-3.1,3.7-3.1c1.5,0,3.6,0.6,3.6,3.4v0.3
			h-5.3c0.1,0.5,0.2,1.5,1.8,1.5c0.6,0,1.1-0.2,1.3-0.7C25.2,111.3,27.3,111.3,27.3,111.3z M25.3,109.4c-0.1-1-0.9-1.3-1.6-1.3
			c-1,0-1.5,0.5-1.6,1.3H25.3z"/>
		<path class="st0" d="M35.7,113h-2v-3.7c0-0.5,0-1.2-1.3-1.2c-0.9,0-1.6,0.5-1.6,1.4v3.5h-2v-6.2h1.9v0.9l0,0
			c0.3-0.4,0.9-1.1,2.3-1.1c1.5,0,2.7,0.7,2.7,2.1V113z"/>
		<path class="st0" d="M49.2,107.4c-0.2-0.5-0.5-1.4-2.3-1.4c-1,0-2.6,0.6-2.6,2.9c0,1.5,0.7,2.8,2.6,2.8c1.2,0,2-0.5,2.3-1.6h2.2
			c-0.4,1.8-1.9,3.1-4.5,3.1c-2.8,0-4.7-1.5-4.7-4.4s2.1-4.4,4.8-4.4c3.1,0,4.4,1.7,4.5,2.9L49.2,107.4L49.2,107.4z"/>
		<path class="st0" d="M56.3,113.1c-2.1,0-3.9-1-3.9-3.2s1.9-3.2,3.9-3.2c2.1,0,3.9,1,3.9,3.2S58.4,113.1,56.3,113.1z M56.3,108
			c-1.6,0-1.9,1.1-1.9,1.9s0.3,1.9,1.9,1.9c1.6,0,1.9-1.1,1.9-1.9S57.9,108,56.3,108z"/>
		<path class="st0" d="M61.7,106.8h1.9v1.1l0,0c0.4-0.6,0.9-1.2,2.1-1.2c0.1,0,0.3,0,0.4,0v1.6c-0.2,0-0.4,0-0.6,0
			c-1.6,0-1.9,0.8-1.9,1.5v3.2h-2L61.7,106.8L61.7,106.8z"/>
		<path class="st0" d="M70,107.7L70,107.7c0.4-0.5,1-1.1,2.3-1.1c1.7,0,3.2,1,3.2,3.2c0,1.7-1,3.3-3.2,3.3c-1.4,0-1.9-0.6-2.2-0.9
			l0,0v3.2h-2v-8.6H70V107.7z M71.8,111.8c1.3,0,1.7-1.1,1.7-1.9c0-1-0.4-1.9-1.7-1.9c-1.4,0-1.7,1-1.7,2
			C70,110.9,70.5,111.8,71.8,111.8z"/>
		<path class="st0" d="M81.2,113.1c-2.1,0-3.9-1-3.9-3.2s1.9-3.2,3.9-3.2c2.1,0,3.9,1,3.9,3.2S83.3,113.1,81.2,113.1z M81.2,108
			c-1.6,0-1.9,1.1-1.9,1.9s0.3,1.9,1.9,1.9s1.9-1.1,1.9-1.9S82.8,108,81.2,108z"/>
		<path class="st0" d="M86.7,106.8h1.9v1.1l0,0c0.4-0.6,0.9-1.2,2.1-1.2c0.1,0,0.3,0,0.4,0v1.6c-0.2,0-0.4,0-0.6,0
			c-1.6,0-1.9,0.8-1.9,1.5v3.2h-2L86.7,106.8L86.7,106.8z"/>
		<path class="st0" d="M99.2,111.8c0,0.7,0.2,0.9,0.4,1v0.2h-2.2c-0.1-0.3-0.1-0.4-0.2-0.7c-0.5,0.4-1.1,0.9-2.5,0.9
			c-1.2,0-2.3-0.5-2.3-1.8c0-1.2,1-1.8,2.2-2l1.8-0.2c0.3,0,0.7-0.1,0.7-0.5c0-0.7-0.8-0.7-1.3-0.7c-1,0-1.2,0.5-1.2,0.9h-2
			c0.2-1.9,1.9-2.2,3.4-2.2c1.1,0,3.1,0.3,3.1,1.8L99.2,111.8L99.2,111.8z M97.2,110c-0.2,0.1-0.5,0.2-1.4,0.3
			c-0.8,0.1-1.4,0.3-1.4,0.9s0.5,0.7,0.9,0.7c0.9,0,1.8-0.5,1.8-1.2L97.2,110L97.2,110z"/>
		<path class="st0" d="M104.1,106.8h1.3v1.2h-1.3v3.3c0,0.4,0,0.5,0.8,0.5c0.1,0,0.3,0,0.4,0v1.2c-0.3,0-0.6,0-1,0H104
			c-1.8,0-2.1-0.5-2.1-1.3V108h-1v-1.2h1v-1.7h2v1.7H104.1z"/>
		<path class="st0" d="M109.5,106.8v6.2h-2v-6.2H109.5z M109.5,106.1h-2v-1.5h2V106.1z"/>
		<path class="st0" d="M114.9,113.1c-2.1,0-3.9-1-3.9-3.2s1.9-3.2,3.9-3.2c2.1,0,3.9,1,3.9,3.2S117,113.1,114.9,113.1z M114.9,108
			c-1.6,0-1.9,1.1-1.9,1.9s0.3,1.9,1.9,1.9s1.9-1.1,1.9-1.9S116.5,108,114.9,108z"/>
		<path class="st0" d="M128,113h-2v-3.7c0-0.5,0-1.2-1.3-1.2c-0.9,0-1.6,0.5-1.6,1.4v3.5h-2v-6.2h1.9v0.9l0,0
			c0.3-0.4,0.9-1.1,2.3-1.1c1.5,0,2.7,0.7,2.7,2.1V113z"/>
		<g>
			<path class="st0" d="M34.1,119.4c0.7,0,2.7,0.2,2.7,2.2s-1.9,2.2-2.7,2.2c-0.7,0-2.7-0.2-2.7-2.2
				C31.4,119.6,33.3,119.4,34.1,119.4z M34.1,123c0.6,0,1.5-0.3,1.5-1.5s-0.9-1.5-1.5-1.5s-1.5,0.3-1.5,1.5
				C32.6,122.8,33.4,123,34.1,123z"/>
			<path class="st0" d="M40.8,123.7h-1.2v-4.2h4v0.7h-2.8v0.9h2.4v0.7h-2.4V123.7z"/>
			<path class="st0" d="M50.8,123.7h-1.2l2-4.2h1.3l2,4.2h-1.3l-0.4-0.9h-2L50.8,123.7z M51.5,122.1H53l-0.7-1.6l0,0L51.5,122.1z"/>
			<path class="st0" d="M62.9,123.7h-1.1v-3.5l0,0l-1,3.5h-1.1l-1-3.5l0,0v3.5h-1.1v-4.2h1.7l1,3.3l0,0l1-3.3H63L62.9,123.7
				L62.9,123.7z"/>
			<path class="st0" d="M70,120.2h-2.9v0.9h2.7v0.7h-2.7v1.1h3.1v0.7H66v-4.2h4V120.2z"/>
			<path class="st0" d="M73,119.5h2.8c1.5,0,1.7,0.8,1.7,1.2c0,0.5-0.3,0.9-0.9,1c0.5,0.2,0.7,0.3,0.7,1.1c0,0.6,0,0.8,0.2,0.8v0.1
				h-1.3c-0.1-0.2-0.1-0.4-0.1-0.8c0-0.6,0-0.8-0.9-0.8H74v1.6h-1V119.5z M75.5,121.3c0.6,0,0.9-0.2,0.9-0.6c0-0.2-0.1-0.5-0.8-0.5
				h-1.4v1.1H75.5z"/>
			<path class="st0" d="M81.6,123.7h-1.2v-4.2h1.2V123.7z"/>
			<path class="st0" d="M88.2,120.9c-0.1-0.2-0.3-0.7-1.2-0.7c-0.6,0-1.4,0.3-1.4,1.5c0,0.7,0.4,1.4,1.4,1.4c0.6,0,1.1-0.3,1.2-0.8
				h1.2c-0.2,0.9-1,1.5-2.4,1.5c-1.5,0-2.5-0.7-2.5-2.2s1.1-2.2,2.6-2.2c1.7,0,2.3,0.9,2.4,1.5C89.5,120.9,88.2,120.9,88.2,120.9z"
				/>
			<path class="st0" d="M93,123.7h-1.2l2-4.2h1.3l2,4.2h-1.3l-0.4-0.9h-2L93,123.7z M93.7,122.1h1.4l-0.7-1.6l0,0L93.7,122.1z"/>
		</g>
	</g>
</g>
</svg>
