<?xml version="1.0" encoding="utf-8"?>
<!-- Generator: Adobe Illustrator 21.0.0, SVG Export Plug-In . SVG Version: 6.00 Build 0)  -->
<svg version="1.1" id="Layer_1" xmlns="http://www.w3.org/2000/svg" xmlns:xlink="http://www.w3.org/1999/xlink" x="0px" y="0px"
	 viewBox="0 0 128 128" style="enable-background:new 0 0 128 128;" xml:space="preserve">
<style type="text/css">
	.st0{fill:#FFFFFF;}
</style>
<path class="st0" d="M53.7,38.8l-6.4,8.8C44.2,52,45.1,59.8,49.5,63l11.8,8.5c2,1.5,2.2,2.9,1.2,4.5l1.7,1.3l6-8.3
	c3.7-5.1,3.4-12.1-2.1-16.1l-11.9-8.7c-1.4-1-1.6-2.5-0.8-4.1L53.7,38.8L53.7,38.8z"/>
<path class="st0" d="M64,0L54,13.7c-4.7,6.4-3,17.4,3.4,22.1l16.3,12c3.3,2.4,3.7,8.6,1.3,11.8l1.4,1l11.3-15.8
	c5.1-7.1,4.8-17.6-3.2-23.4L67.1,8.7c-2.4-1.8-3.7-4.8-1.6-7.7L64,0L64,0z"/>
<path class="st0" d="M37.8,86.1H51l2.3,8c7.2,0,14.3,0,21.5,0l2.3-8h13.2l-1.7-5.9c-16.4,0-32.7,0-49.1,0L37.8,86.1L37.8,86.1z"/>
<path class="st0" d="M38.8,122.5h-7.9v-6.6h7.9C44.6,115.9,44.2,122.5,38.8,122.5L38.8,122.5z M38.3,110.8H31v-6.2h7
	C42.4,104.6,42.6,110.8,38.3,110.8L38.3,110.8z M49.1,118.9c-0.6-3.8-2.1-4.7-5.1-6.1c2.3-1.4,3.7-3.3,3.7-6.1
	c0-5.5-4.5-7.7-9.3-7.7H24.8v29h13.5C44,128,50.1,125.5,49.1,118.9L49.1,118.9z"/>
<path class="st0" d="M65.8,122.5h-7.9v-6.6h7.9C71.6,115.9,71.3,122.5,65.8,122.5L65.8,122.5z M65.3,110.8H58v-6.2h7
	C69.4,104.6,69.6,110.8,65.3,110.8L65.3,110.8z M76.1,118.9c-0.6-3.8-2.1-4.7-5.1-6.1c2.3-1.4,3.7-3.3,3.7-6.1
	c0-5.5-4.5-7.7-9.3-7.7H51.8v29h13.5C71,128,77.1,125.5,76.1,118.9L76.1,118.9z"/>
<path class="st0" d="M92.8,122.5h-7.9v-6.6h7.9C98.6,115.9,98.3,122.5,92.8,122.5L92.8,122.5z M92.3,110.8H85v-6.2h7
	C96.4,104.6,96.6,110.8,92.3,110.8L92.3,110.8z M103.1,118.9c-0.6-3.8-2.1-4.7-5.1-6.1c2.3-1.4,3.7-3.3,3.7-6.1
	c0-5.5-4.5-7.7-9.3-7.7H78.8v29h13.5C98,128,104.1,125.5,103.1,118.9L103.1,118.9z"/>
</svg>
